<svg id="Слой_1" xmlns="http://www.w3.org/2000/svg" viewBox="0 0 255 339.9"><style>.st0{fill:#ebebeb}.st1{fill:#e8485e}.st2{fill:#293639}</style><path class="st0" d="M250 25v309.9H5V25h245zm5-25H0v339.9h255V0z"/><path class="st1" d="M18.8 44.2h108.7v12.5H18.8z"/><path class="st2" d="M19 119h216.8v2.8H19z"/><path class="st0" d="M18.8 67.5h108.7V80H18.8zm30 180.4h88.5v12.5H48.8zm0 22h140.5v12.5H48.8z"/><path class="st1" d="M48.8 291.9h61.4v12.5H48.8z"/><path class="st0" d="M19.2 134.1h216.6v67.8H19.2zm0-42.4h108.3v12.5H19.2z"/><path class="st1" d="M181.5 215.1h54.3v18.8h-54.3z"/><path class="st0" d="M110.2 215.1h54.3v18.8h-54.3z"/><path class="st1" d="M170 36.6v65.8h65.8V36.6H170zm8.4 8.4h42.8l-42.8 45V45zm49 49h-45.1l45.1-42.9V94z"/><circle class="st1" cx="10.8" cy="13.2" r="5.8"/><circle class="st2" cx="28.7" cy="13.2" r="5.8"/><circle class="st2" cx="46.6" cy="13.2" r="5.8"/><circle class="st0" cx="148.9" cy="50.9" r="5.8"/><circle class="st0" cx="24.9" cy="298.1" r="5.8"/><circle class="st1" cx="24.9" cy="276.1" r="5.8"/><circle class="st0" cx="24.9" cy="254.1" r="5.8"/><circle class="st1" cx="148.9" cy="73.7" r="5.8"/><circle class="st0" cx="148.9" cy="96.6" r="5.8"/></svg>