<svg id="Слой_1" xmlns="http://www.w3.org/2000/svg" viewBox="0 0 255 339.9"><style>.st0{fill:#ebebeb}.st1{fill:#e8485e}</style><path class="st0" d="M250 5v329.9H5V5h245m5-5H0v339.9h255V0z"/><path class="st1" d="M38.8 35.9v64h177v-64h-177zm126 40.9c0 4.5-3.6 8.2-8.1 8.2H97.9c-4.5 0-8.1-3.6-8.1-8.2V59.1c0-4.5 3.6-8.2 8.1-8.2h58.7c4.5 0 8.1 3.6 8.1 8.2v17.7zm-37.9-21.4c-7 0-12.7 5.7-12.7 12.7 0 7 5.7 12.7 12.7 12.7 7 0 12.7-5.7 12.7-12.7 0-7-5.7-12.7-12.7-12.7zm0 22.8c-5.6 0-10.1-4.5-10.1-10.1S121.3 58 126.9 58 137 62.5 137 68.1s-4.5 10.1-10.1 10.1z"/><path class="st0" d="M38.4 114.4h177v12.5h-177zm0 23.3h177v12.5h-177z"/><path class="st1" d="M38.4 249.8h177v12.5h-177z"/><path class="st0" d="M38.4 276.8h177v27.1h-177zm.6-106.9h98v12.5H39zm0 25.8h98v12.5H39zm0 25.7h98v12.5H39z"/><path class="st1" d="M152.8 170.9v63h63v-63h-63zm8 8h41l-41 43.1v-43.1zm47 47h-43.2l43.2-41.1v41.1z"/></svg>