<svg id="Слой_1" xmlns="http://www.w3.org/2000/svg" viewBox="0 0 340.9 339.9"><style>.st0{fill:#2a363b}.st1{fill:#e8485e}</style><path class="st0" d="M336.4 5v329.9H5V5h330.4m4-5H0v339.9h339.4V0z"/><path class="st0" d="M38.8 179.5h49.6v13H38.8zm0 85h49.6v13H38.8z"/><path class="st1" d="M38.8 289.2h49.6v15H38.8zm-.4-85.3v50h50v-50h-50zm6 6h34.7l-34.7 34.8v-34.8zm38 38H49.6l32.8-32.7v32.7z"/><path class="st0" d="M38.4 39.7h50v61.8h-50z"/><path class="st1" d="M38.4 113.5h47.5v12.6H38.4zm0 24.6h47.5v12.6H38.4z"/><path class="st0" d="M335.9 5v329.9h-245V5h245m5-5h-255v339.9h255V0z"/><path class="st1" d="M196.2 38.4v38.7h38.7V38.4h-38.7zm4.7 4.6h26.9l-26.9 27V43zm29.4 29.5h-25.4l25.4-25.3v25.3zM125.1 38.8h43v12.6h-43z"/><path class="st0" d="M125.1 63.4h43V76h-43zm0 24.6h43v12.6h-43zm0 25.1h43v12.6h-43z"/><path class="st1" d="M125.1 137.6h43v12.6h-43z"/><path class="st0" d="M125.1 162.7h43v12.6h-43zm0 24.6h43v12.6h-43z"/><path class="st0" d="M125.1 162.7h43v12.6h-43zm0 24.6h43v12.6h-43zm0 25.1h43V225h-43z"/><path class="st1" d="M125.1 237h43v12.6h-43z"/><path class="st0" d="M125.1 262h43v12.6h-43zm0 24.6h43v12.6h-43zm123-246.9h53.1v12.6h-53.1zm0 23.7h53.1V76h-53.1zm-51.9 23.7h105v12.6h-105z"/><path class="st1" d="M196.2 113.3V152h38.7v-38.7h-38.7zm4.7 4.6h26.9l-26.9 27v-27zm29.4 29.5h-25.4l25.4-25.3v25.3z"/><path class="st0" d="M248.1 114.6h53.1v12.6h-53.1zm0 23.7h53.1v12.6h-53.1zM196.2 162h105v12.6h-105z"/><path class="st1" d="M196.2 188v38.7h38.7V188h-38.7zm4.7 4.7h26.9l-26.9 27v-27zm29.4 29.4h-25.4l25.4-25.3v25.3z"/><path class="st0" d="M248.1 189.3h53.1v12.6h-53.1zm0 23.7h53.1v12.6h-53.1zm-51.9 23.7h105v12.6h-105z"/><path class="st1" d="M196.2 262.3V301h38.7v-38.7h-38.7zm4.7 4.6h26.9l-26.9 27v-27zm29.4 29.5h-25.4l25.4-25.3v25.3z"/><path class="st0" d="M248.1 263.6h53.1v12.6h-53.1zm0 23.7h53.1v12.6h-53.1z"/></svg>